%TF.GenerationSoftware,KiCad,Pcbnew,10.0.1*%
%TF.CreationDate,2026-06-02T23:36:00+05:30*%
%TF.ProjectId,at-85-remake,61742d38-352d-4726-956d-616b652e6b69,rev?*%
%TF.SameCoordinates,Original*%
%TF.FileFunction,Legend,Top*%
%TF.FilePolarity,Positive*%
%FSLAX46Y46*%
G04 Gerber Fmt 4.6, Leading zero omitted, Abs format (unit mm)*
G04 Created by KiCad (PCBNEW 10.0.1) date 2026-06-02 23:36:00*
%MOMM*%
%LPD*%
G01*
G04 APERTURE LIST*
%ADD10C,0.200000*%
%ADD11C,0.100000*%
%ADD12C,0.150000*%
%ADD13C,0.120000*%
%TA.AperFunction,Profile*%
%ADD14C,0.050000*%
%TD*%
G04 APERTURE END LIST*
D10*
X170928244Y-76607219D02*
X170737768Y-76607219D01*
X170737768Y-76607219D02*
X170642530Y-76654838D01*
X170642530Y-76654838D02*
X170594911Y-76702457D01*
X170594911Y-76702457D02*
X170499673Y-76845314D01*
X170499673Y-76845314D02*
X170452054Y-77035790D01*
X170452054Y-77035790D02*
X170452054Y-77416742D01*
X170452054Y-77416742D02*
X170499673Y-77511980D01*
X170499673Y-77511980D02*
X170547292Y-77559600D01*
X170547292Y-77559600D02*
X170642530Y-77607219D01*
X170642530Y-77607219D02*
X170833006Y-77607219D01*
X170833006Y-77607219D02*
X170928244Y-77559600D01*
X170928244Y-77559600D02*
X170975863Y-77511980D01*
X170975863Y-77511980D02*
X171023482Y-77416742D01*
X171023482Y-77416742D02*
X171023482Y-77178647D01*
X171023482Y-77178647D02*
X170975863Y-77083409D01*
X170975863Y-77083409D02*
X170928244Y-77035790D01*
X170928244Y-77035790D02*
X170833006Y-76988171D01*
X170833006Y-76988171D02*
X170642530Y-76988171D01*
X170642530Y-76988171D02*
X170547292Y-77035790D01*
X170547292Y-77035790D02*
X170499673Y-77083409D01*
X170499673Y-77083409D02*
X170452054Y-77178647D01*
X171499673Y-77607219D02*
X171690149Y-77607219D01*
X171690149Y-77607219D02*
X171785387Y-77559600D01*
X171785387Y-77559600D02*
X171833006Y-77511980D01*
X171833006Y-77511980D02*
X171928244Y-77369123D01*
X171928244Y-77369123D02*
X171975863Y-77178647D01*
X171975863Y-77178647D02*
X171975863Y-76797695D01*
X171975863Y-76797695D02*
X171928244Y-76702457D01*
X171928244Y-76702457D02*
X171880625Y-76654838D01*
X171880625Y-76654838D02*
X171785387Y-76607219D01*
X171785387Y-76607219D02*
X171594911Y-76607219D01*
X171594911Y-76607219D02*
X171499673Y-76654838D01*
X171499673Y-76654838D02*
X171452054Y-76702457D01*
X171452054Y-76702457D02*
X171404435Y-76797695D01*
X171404435Y-76797695D02*
X171404435Y-77035790D01*
X171404435Y-77035790D02*
X171452054Y-77131028D01*
X171452054Y-77131028D02*
X171499673Y-77178647D01*
X171499673Y-77178647D02*
X171594911Y-77226266D01*
X171594911Y-77226266D02*
X171785387Y-77226266D01*
X171785387Y-77226266D02*
X171880625Y-77178647D01*
X171880625Y-77178647D02*
X171928244Y-77131028D01*
X171928244Y-77131028D02*
X171975863Y-77035790D01*
X172356816Y-77559600D02*
X172452054Y-77607219D01*
X172452054Y-77607219D02*
X172642530Y-77607219D01*
X172642530Y-77607219D02*
X172737768Y-77559600D01*
X172737768Y-77559600D02*
X172785387Y-77464361D01*
X172785387Y-77464361D02*
X172785387Y-77416742D01*
X172785387Y-77416742D02*
X172737768Y-77321504D01*
X172737768Y-77321504D02*
X172642530Y-77273885D01*
X172642530Y-77273885D02*
X172499673Y-77273885D01*
X172499673Y-77273885D02*
X172404435Y-77226266D01*
X172404435Y-77226266D02*
X172356816Y-77131028D01*
X172356816Y-77131028D02*
X172356816Y-77083409D01*
X172356816Y-77083409D02*
X172404435Y-76988171D01*
X172404435Y-76988171D02*
X172499673Y-76940552D01*
X172499673Y-76940552D02*
X172642530Y-76940552D01*
X172642530Y-76940552D02*
X172737768Y-76988171D01*
X173071102Y-77226266D02*
X173118721Y-77178647D01*
X173118721Y-77178647D02*
X173213959Y-77131028D01*
X173213959Y-77131028D02*
X173404435Y-77226266D01*
X173404435Y-77226266D02*
X173499673Y-77178647D01*
X173499673Y-77178647D02*
X173547292Y-77131028D01*
D11*
X152747217Y-85514895D02*
X152366265Y-85514895D01*
X152366265Y-85514895D02*
X152366265Y-84714895D01*
X153013884Y-85095847D02*
X153280550Y-85095847D01*
X153394836Y-85514895D02*
X153013884Y-85514895D01*
X153013884Y-85514895D02*
X153013884Y-84714895D01*
X153013884Y-84714895D02*
X153394836Y-84714895D01*
X153737694Y-85514895D02*
X153737694Y-84714895D01*
X153737694Y-84714895D02*
X153928170Y-84714895D01*
X153928170Y-84714895D02*
X154042456Y-84752990D01*
X154042456Y-84752990D02*
X154118646Y-84829180D01*
X154118646Y-84829180D02*
X154156741Y-84905371D01*
X154156741Y-84905371D02*
X154194837Y-85057752D01*
X154194837Y-85057752D02*
X154194837Y-85172038D01*
X154194837Y-85172038D02*
X154156741Y-85324419D01*
X154156741Y-85324419D02*
X154118646Y-85400609D01*
X154118646Y-85400609D02*
X154042456Y-85476800D01*
X154042456Y-85476800D02*
X153928170Y-85514895D01*
X153928170Y-85514895D02*
X153737694Y-85514895D01*
X155896667Y-77174895D02*
X155630000Y-76793942D01*
X155439524Y-77174895D02*
X155439524Y-76374895D01*
X155439524Y-76374895D02*
X155744286Y-76374895D01*
X155744286Y-76374895D02*
X155820476Y-76412990D01*
X155820476Y-76412990D02*
X155858571Y-76451085D01*
X155858571Y-76451085D02*
X155896667Y-76527276D01*
X155896667Y-76527276D02*
X155896667Y-76641561D01*
X155896667Y-76641561D02*
X155858571Y-76717752D01*
X155858571Y-76717752D02*
X155820476Y-76755847D01*
X155820476Y-76755847D02*
X155744286Y-76793942D01*
X155744286Y-76793942D02*
X155439524Y-76793942D01*
X156582381Y-76641561D02*
X156582381Y-77174895D01*
X156391905Y-76336800D02*
X156201428Y-76908228D01*
X156201428Y-76908228D02*
X156696667Y-76908228D01*
X151626265Y-78806895D02*
X151626265Y-79454514D01*
X151626265Y-79454514D02*
X151664360Y-79530704D01*
X151664360Y-79530704D02*
X151702455Y-79568800D01*
X151702455Y-79568800D02*
X151778646Y-79606895D01*
X151778646Y-79606895D02*
X151931027Y-79606895D01*
X151931027Y-79606895D02*
X152007217Y-79568800D01*
X152007217Y-79568800D02*
X152045312Y-79530704D01*
X152045312Y-79530704D02*
X152083408Y-79454514D01*
X152083408Y-79454514D02*
X152083408Y-78806895D01*
X152426264Y-79568800D02*
X152540550Y-79606895D01*
X152540550Y-79606895D02*
X152731026Y-79606895D01*
X152731026Y-79606895D02*
X152807217Y-79568800D01*
X152807217Y-79568800D02*
X152845312Y-79530704D01*
X152845312Y-79530704D02*
X152883407Y-79454514D01*
X152883407Y-79454514D02*
X152883407Y-79378323D01*
X152883407Y-79378323D02*
X152845312Y-79302133D01*
X152845312Y-79302133D02*
X152807217Y-79264038D01*
X152807217Y-79264038D02*
X152731026Y-79225942D01*
X152731026Y-79225942D02*
X152578645Y-79187847D01*
X152578645Y-79187847D02*
X152502455Y-79149752D01*
X152502455Y-79149752D02*
X152464360Y-79111657D01*
X152464360Y-79111657D02*
X152426264Y-79035466D01*
X152426264Y-79035466D02*
X152426264Y-78959276D01*
X152426264Y-78959276D02*
X152464360Y-78883085D01*
X152464360Y-78883085D02*
X152502455Y-78844990D01*
X152502455Y-78844990D02*
X152578645Y-78806895D01*
X152578645Y-78806895D02*
X152769122Y-78806895D01*
X152769122Y-78806895D02*
X152883407Y-78844990D01*
X153492931Y-79187847D02*
X153607217Y-79225942D01*
X153607217Y-79225942D02*
X153645312Y-79264038D01*
X153645312Y-79264038D02*
X153683408Y-79340228D01*
X153683408Y-79340228D02*
X153683408Y-79454514D01*
X153683408Y-79454514D02*
X153645312Y-79530704D01*
X153645312Y-79530704D02*
X153607217Y-79568800D01*
X153607217Y-79568800D02*
X153531027Y-79606895D01*
X153531027Y-79606895D02*
X153226265Y-79606895D01*
X153226265Y-79606895D02*
X153226265Y-78806895D01*
X153226265Y-78806895D02*
X153492931Y-78806895D01*
X153492931Y-78806895D02*
X153569122Y-78844990D01*
X153569122Y-78844990D02*
X153607217Y-78883085D01*
X153607217Y-78883085D02*
X153645312Y-78959276D01*
X153645312Y-78959276D02*
X153645312Y-79035466D01*
X153645312Y-79035466D02*
X153607217Y-79111657D01*
X153607217Y-79111657D02*
X153569122Y-79149752D01*
X153569122Y-79149752D02*
X153492931Y-79187847D01*
X153492931Y-79187847D02*
X153226265Y-79187847D01*
X152906667Y-82924895D02*
X152640000Y-82543942D01*
X152449524Y-82924895D02*
X152449524Y-82124895D01*
X152449524Y-82124895D02*
X152754286Y-82124895D01*
X152754286Y-82124895D02*
X152830476Y-82162990D01*
X152830476Y-82162990D02*
X152868571Y-82201085D01*
X152868571Y-82201085D02*
X152906667Y-82277276D01*
X152906667Y-82277276D02*
X152906667Y-82391561D01*
X152906667Y-82391561D02*
X152868571Y-82467752D01*
X152868571Y-82467752D02*
X152830476Y-82505847D01*
X152830476Y-82505847D02*
X152754286Y-82543942D01*
X152754286Y-82543942D02*
X152449524Y-82543942D01*
X153211428Y-82201085D02*
X153249524Y-82162990D01*
X153249524Y-82162990D02*
X153325714Y-82124895D01*
X153325714Y-82124895D02*
X153516190Y-82124895D01*
X153516190Y-82124895D02*
X153592381Y-82162990D01*
X153592381Y-82162990D02*
X153630476Y-82201085D01*
X153630476Y-82201085D02*
X153668571Y-82277276D01*
X153668571Y-82277276D02*
X153668571Y-82353466D01*
X153668571Y-82353466D02*
X153630476Y-82467752D01*
X153630476Y-82467752D02*
X153173333Y-82924895D01*
X153173333Y-82924895D02*
X153668571Y-82924895D01*
X159919524Y-80814895D02*
X159919524Y-80014895D01*
X159919524Y-80014895D02*
X160110000Y-80014895D01*
X160110000Y-80014895D02*
X160224286Y-80052990D01*
X160224286Y-80052990D02*
X160300476Y-80129180D01*
X160300476Y-80129180D02*
X160338571Y-80205371D01*
X160338571Y-80205371D02*
X160376667Y-80357752D01*
X160376667Y-80357752D02*
X160376667Y-80472038D01*
X160376667Y-80472038D02*
X160338571Y-80624419D01*
X160338571Y-80624419D02*
X160300476Y-80700609D01*
X160300476Y-80700609D02*
X160224286Y-80776800D01*
X160224286Y-80776800D02*
X160110000Y-80814895D01*
X160110000Y-80814895D02*
X159919524Y-80814895D01*
X160681428Y-80091085D02*
X160719524Y-80052990D01*
X160719524Y-80052990D02*
X160795714Y-80014895D01*
X160795714Y-80014895D02*
X160986190Y-80014895D01*
X160986190Y-80014895D02*
X161062381Y-80052990D01*
X161062381Y-80052990D02*
X161100476Y-80091085D01*
X161100476Y-80091085D02*
X161138571Y-80167276D01*
X161138571Y-80167276D02*
X161138571Y-80243466D01*
X161138571Y-80243466D02*
X161100476Y-80357752D01*
X161100476Y-80357752D02*
X160643333Y-80814895D01*
X160643333Y-80814895D02*
X161138571Y-80814895D01*
D12*
X166667319Y-82531904D02*
X167476842Y-82531904D01*
X167476842Y-82531904D02*
X167572080Y-82484285D01*
X167572080Y-82484285D02*
X167619700Y-82436666D01*
X167619700Y-82436666D02*
X167667319Y-82341428D01*
X167667319Y-82341428D02*
X167667319Y-82150952D01*
X167667319Y-82150952D02*
X167619700Y-82055714D01*
X167619700Y-82055714D02*
X167572080Y-82008095D01*
X167572080Y-82008095D02*
X167476842Y-81960476D01*
X167476842Y-81960476D02*
X166667319Y-81960476D01*
X167667319Y-80960476D02*
X167667319Y-81531904D01*
X167667319Y-81246190D02*
X166667319Y-81246190D01*
X166667319Y-81246190D02*
X166810176Y-81341428D01*
X166810176Y-81341428D02*
X166905414Y-81436666D01*
X166905414Y-81436666D02*
X166953033Y-81531904D01*
D11*
X172298704Y-84983332D02*
X172336800Y-85021428D01*
X172336800Y-85021428D02*
X172374895Y-85135713D01*
X172374895Y-85135713D02*
X172374895Y-85211904D01*
X172374895Y-85211904D02*
X172336800Y-85326190D01*
X172336800Y-85326190D02*
X172260609Y-85402380D01*
X172260609Y-85402380D02*
X172184419Y-85440475D01*
X172184419Y-85440475D02*
X172032038Y-85478571D01*
X172032038Y-85478571D02*
X171917752Y-85478571D01*
X171917752Y-85478571D02*
X171765371Y-85440475D01*
X171765371Y-85440475D02*
X171689180Y-85402380D01*
X171689180Y-85402380D02*
X171612990Y-85326190D01*
X171612990Y-85326190D02*
X171574895Y-85211904D01*
X171574895Y-85211904D02*
X171574895Y-85135713D01*
X171574895Y-85135713D02*
X171612990Y-85021428D01*
X171612990Y-85021428D02*
X171651085Y-84983332D01*
X172374895Y-84221428D02*
X172374895Y-84678571D01*
X172374895Y-84449999D02*
X171574895Y-84449999D01*
X171574895Y-84449999D02*
X171689180Y-84526190D01*
X171689180Y-84526190D02*
X171765371Y-84602380D01*
X171765371Y-84602380D02*
X171803466Y-84678571D01*
X160379524Y-76784895D02*
X160379524Y-75984895D01*
X160379524Y-75984895D02*
X160570000Y-75984895D01*
X160570000Y-75984895D02*
X160684286Y-76022990D01*
X160684286Y-76022990D02*
X160760476Y-76099180D01*
X160760476Y-76099180D02*
X160798571Y-76175371D01*
X160798571Y-76175371D02*
X160836667Y-76327752D01*
X160836667Y-76327752D02*
X160836667Y-76442038D01*
X160836667Y-76442038D02*
X160798571Y-76594419D01*
X160798571Y-76594419D02*
X160760476Y-76670609D01*
X160760476Y-76670609D02*
X160684286Y-76746800D01*
X160684286Y-76746800D02*
X160570000Y-76784895D01*
X160570000Y-76784895D02*
X160379524Y-76784895D01*
X161598571Y-76784895D02*
X161141428Y-76784895D01*
X161370000Y-76784895D02*
X161370000Y-75984895D01*
X161370000Y-75984895D02*
X161293809Y-76099180D01*
X161293809Y-76099180D02*
X161217619Y-76175371D01*
X161217619Y-76175371D02*
X161141428Y-76213466D01*
X152856667Y-80734895D02*
X152590000Y-80353942D01*
X152399524Y-80734895D02*
X152399524Y-79934895D01*
X152399524Y-79934895D02*
X152704286Y-79934895D01*
X152704286Y-79934895D02*
X152780476Y-79972990D01*
X152780476Y-79972990D02*
X152818571Y-80011085D01*
X152818571Y-80011085D02*
X152856667Y-80087276D01*
X152856667Y-80087276D02*
X152856667Y-80201561D01*
X152856667Y-80201561D02*
X152818571Y-80277752D01*
X152818571Y-80277752D02*
X152780476Y-80315847D01*
X152780476Y-80315847D02*
X152704286Y-80353942D01*
X152704286Y-80353942D02*
X152399524Y-80353942D01*
X153618571Y-80734895D02*
X153161428Y-80734895D01*
X153390000Y-80734895D02*
X153390000Y-79934895D01*
X153390000Y-79934895D02*
X153313809Y-80049180D01*
X153313809Y-80049180D02*
X153237619Y-80125371D01*
X153237619Y-80125371D02*
X153161428Y-80163466D01*
X161666667Y-84314895D02*
X161400000Y-83933942D01*
X161209524Y-84314895D02*
X161209524Y-83514895D01*
X161209524Y-83514895D02*
X161514286Y-83514895D01*
X161514286Y-83514895D02*
X161590476Y-83552990D01*
X161590476Y-83552990D02*
X161628571Y-83591085D01*
X161628571Y-83591085D02*
X161666667Y-83667276D01*
X161666667Y-83667276D02*
X161666667Y-83781561D01*
X161666667Y-83781561D02*
X161628571Y-83857752D01*
X161628571Y-83857752D02*
X161590476Y-83895847D01*
X161590476Y-83895847D02*
X161514286Y-83933942D01*
X161514286Y-83933942D02*
X161209524Y-83933942D01*
X161933333Y-83514895D02*
X162428571Y-83514895D01*
X162428571Y-83514895D02*
X162161905Y-83819657D01*
X162161905Y-83819657D02*
X162276190Y-83819657D01*
X162276190Y-83819657D02*
X162352381Y-83857752D01*
X162352381Y-83857752D02*
X162390476Y-83895847D01*
X162390476Y-83895847D02*
X162428571Y-83972038D01*
X162428571Y-83972038D02*
X162428571Y-84162514D01*
X162428571Y-84162514D02*
X162390476Y-84238704D01*
X162390476Y-84238704D02*
X162352381Y-84276800D01*
X162352381Y-84276800D02*
X162276190Y-84314895D01*
X162276190Y-84314895D02*
X162047619Y-84314895D01*
X162047619Y-84314895D02*
X161971428Y-84276800D01*
X161971428Y-84276800D02*
X161933333Y-84238704D01*
%TO.C,LED*%
D13*
X154425000Y-84045000D02*
X154425000Y-86315000D01*
X154425000Y-86315000D02*
X158310000Y-86315000D01*
X158310000Y-84045000D02*
X154425000Y-84045000D01*
%TO.C,R4*%
X155892936Y-77595000D02*
X156347064Y-77595000D01*
X155892936Y-79065000D02*
X156347064Y-79065000D01*
%TO.C,U2*%
D11*
X144400000Y-76420000D02*
X153900000Y-76420000D01*
X153900000Y-86420000D01*
X144400000Y-86420000D01*
X144400000Y-76420000D01*
%TO.C,R2*%
D13*
X156367064Y-81835000D02*
X155912936Y-81835000D01*
X156367064Y-83305000D02*
X155912936Y-83305000D01*
%TO.C,D2*%
X158672500Y-81300000D02*
X158672500Y-83300000D01*
X158672500Y-81300000D02*
X162682500Y-81300000D01*
X158672500Y-83300000D02*
X162682500Y-83300000D01*
%TO.C,U1*%
X164240000Y-78910000D02*
X164510000Y-78910000D01*
X164240000Y-84430000D02*
X164240000Y-78910000D01*
X164510000Y-84430000D02*
X164240000Y-84430000D01*
X169490000Y-78910000D02*
X169760000Y-78910000D01*
X169760000Y-78910000D02*
X169760000Y-84430000D01*
X169760000Y-84430000D02*
X169490000Y-84430000D01*
X169970000Y-78420000D02*
X169500000Y-78080000D01*
X169970000Y-77740000D01*
X169970000Y-78420000D01*
G36*
X169970000Y-78420000D02*
G01*
X169500000Y-78080000D01*
X169970000Y-77740000D01*
X169970000Y-78420000D01*
G37*
%TO.C,C1*%
X171010000Y-82011252D02*
X171010000Y-80588748D01*
X172830000Y-82011252D02*
X172830000Y-80588748D01*
%TO.C,D1*%
X158592500Y-77340000D02*
X158592500Y-79340000D01*
X158592500Y-77340000D02*
X162602500Y-77340000D01*
X158592500Y-79340000D02*
X162602500Y-79340000D01*
%TO.C,R1*%
X156347064Y-79675000D02*
X155892936Y-79675000D01*
X156347064Y-81145000D02*
X155892936Y-81145000D01*
%TO.C,R3*%
X161967064Y-84615000D02*
X161512936Y-84615000D01*
X161967064Y-86085000D02*
X161512936Y-86085000D01*
%TD*%
D14*
X144330000Y-75580000D02*
X175640000Y-75580000D01*
X175640000Y-87380000D01*
X144330000Y-87380000D01*
X144330000Y-75580000D01*
M02*
